<svg width="513" height="464" viewBox="0 0 513 464" fill="none" xmlns="http://www.w3.org/2000/svg">
<rect x="128.322" y="33.0056" width="16.9743" height="408.326" fill="#DA9393"/>
<rect x="128.322" y="33.0056" width="16.9743" height="408.326" fill="#DA9393"/>
<rect x="128.322" y="33.0056" width="16.9743" height="408.326" fill="#DA9393"/>
<rect x="128.322" y="33.0056" width="16.9743" height="408.326" fill="#DA9393"/>
<rect x="373.506" y="37.7206" width="16.9743" height="408.326" fill="#DA9393"/>
<rect x="373.506" y="37.7206" width="16.9743" height="408.326" fill="#DA9393"/>
<rect x="373.506" y="37.7206" width="16.9743" height="408.326" fill="#DA9393"/>
<rect x="373.506" y="37.7206" width="16.9743" height="408.326" fill="#DA9393"/>
<rect x="246.199" width="16.9743" height="463.021" fill="#DA9393"/>
<rect x="246.199" width="16.9743" height="463.021" fill="#DA9393"/>
<rect x="246.199" width="16.9743" height="463.021" fill="#DA9393"/>
<rect x="246.199" width="16.9743" height="463.021" fill="#DA9393"/>
<rect x="62.9186" y="365.602" width="16.9743" height="408.326" transform="rotate(-90.8739 62.9186 365.602)" fill="#FF0000"/>
<rect x="62.9186" y="365.602" width="16.9743" height="408.326" transform="rotate(-90.8739 62.9186 365.602)" fill="#FF0000"/>
<rect x="62.9186" y="365.602" width="16.9743" height="408.326" transform="rotate(-90.8739 62.9186 365.602)" fill="#FF0000"/>
<rect x="62.9186" y="365.602" width="16.9743" height="408.326" transform="rotate(-90.8739 62.9186 365.602)" fill="#FF0000"/>
<rect x="63.8934" y="120.374" width="16.9743" height="408.326" transform="rotate(-90.8739 63.8934 120.374)" fill="#FF0000"/>
<rect x="63.8934" y="120.374" width="16.9743" height="408.326" transform="rotate(-90.8739 63.8934 120.374)" fill="#FF0000"/>
<rect x="63.8934" y="120.374" width="16.9743" height="408.326" transform="rotate(-90.8739 63.8934 120.374)" fill="#FF0000"/>
<rect x="63.8934" y="120.374" width="16.9743" height="408.326" transform="rotate(-90.8739 63.8934 120.374)" fill="#FF0000"/>
<rect x="28.1189" y="248.242" width="16.9743" height="463.021" transform="rotate(-90.8739 28.1189 248.242)" fill="#FF0000"/>
<rect x="28.1189" y="248.242" width="16.9743" height="463.021" transform="rotate(-90.8739 28.1189 248.242)" fill="#FF0000"/>
<rect x="28.1189" y="248.242" width="16.9743" height="463.021" transform="rotate(-90.8739 28.1189 248.242)" fill="#FF0000"/>
<rect x="28.1189" y="248.242" width="16.9743" height="463.021" transform="rotate(-90.8739 28.1189 248.242)" fill="#FF0000"/>
<path d="M440.689 134.388C444.967 129.699 447.889 126.233 449.456 123.99C451.023 121.746 452.703 119.582 454.494 117.495C456.286 115.409 458.1 114.006 459.938 113.287C461.776 112.568 463.905 112.386 466.326 112.743C468.905 112.875 471.197 113.058 473.204 113.292C475.401 113.491 476.707 113.653 477.121 113.776C479.589 115.499 481.794 117.958 483.736 121.15C485.678 124.343 486.818 126.892 487.156 128.797C487.494 130.703 487.227 132.519 486.354 134.246C484.301 144.829 476.688 160.623 463.514 181.629C460.325 186.912 457.459 191.252 454.918 194.651C457.647 200.062 460.22 207.368 462.638 216.568C467.957 235.472 471.156 246.303 472.235 249.059C473.313 251.815 474.066 253.844 474.493 255.143C474.92 256.443 475.729 257.675 476.918 258.84C478.254 261.944 477.663 264.702 475.143 267.114C472.814 269.492 469.638 271.53 465.616 273.226C457.224 276.876 449.844 278.48 443.477 278.038C440.023 276.292 437.325 273.823 435.383 270.63C432.768 266.968 428.345 259.204 422.113 247.34C420.423 249.998 418.828 252.639 417.329 255.263C415.829 257.887 414.329 260.511 412.83 263.136L409.792 269.275C408.919 271.002 408.047 272.729 407.174 274.456C406.492 276.149 405.636 277.971 404.607 279.923C402.48 283.444 399.037 287.298 394.277 291.483C389.505 294.491 384.911 296.289 380.495 296.876C372.201 297.757 367.336 296.361 365.897 292.686C361.245 291.939 358.251 290.014 356.914 286.91C355.611 283.997 355.209 278.959 355.706 271.796C367.31 237.509 378.67 213.484 389.788 199.72C387.6 197.357 385.54 193.498 383.607 188.142C379.686 178.226 376.598 171.895 374.342 169.151C369.343 168.663 365.474 166.794 362.736 163.546C359.998 160.298 359.674 155.148 361.764 148.096L364.483 143.487C370.731 135.5 377.641 130.147 385.216 127.428C392.981 124.675 400.654 125.278 408.235 129.239C413.527 130.266 419.903 134.637 427.364 142.353C429.293 144.369 430.584 146.105 431.235 147.562C433.417 143.244 436.569 138.853 440.689 134.388Z" fill="#FECECE"/>
<path d="M229.201 177.51C232.695 173.942 237.53 172.396 243.707 172.873C244.883 172.86 246.044 172.753 247.187 172.55C249.857 163.233 256.302 157.472 266.523 155.265C269.156 154.602 272.787 153.466 277.415 151.859C282.042 150.252 287.792 149.429 294.663 149.389C301.724 149.315 308.081 150.251 313.732 152.196C326.054 156.298 334.372 163.862 338.686 174.888C346.233 190.842 348.811 209.25 346.42 230.112C344.02 253.137 336.461 272.558 323.742 288.374C317.965 295.687 311.401 300.782 304.051 303.658C296.734 306.725 290.045 308.894 283.982 310.166C277.919 311.438 272.299 312.436 267.121 313.158C262.168 314.036 257.225 314.422 252.293 314.314C241.633 314.044 232.293 310.69 224.273 304.252C214.941 297.065 209.24 284.32 207.173 266.018C205.095 249.879 206.24 233.07 210.607 215.592C215.13 197.889 221.328 185.195 229.201 177.51ZM289.689 226.028C285.196 228.397 280.837 229.858 276.612 230.411C274.888 232.879 273.389 235.503 272.113 238.284C270.995 240.84 269.288 243.403 266.992 245.972C264.663 248.351 263.465 249.349 263.397 248.968C260.97 254.115 259.147 259.351 257.93 264.677C256.68 269.811 257.542 274.67 260.516 279.251C268.272 278.661 273.859 277.474 277.276 275.689C280.693 273.903 283.638 271.121 286.112 267.341C288.776 263.528 290.577 259.278 291.514 254.592C293.49 245.791 292.882 236.27 289.689 226.028Z" fill="#FECECE"/>
<path d="M157.423 184.643C161.7 179.954 164.623 176.488 166.19 174.245C167.757 172.002 169.436 169.837 171.228 167.75C173.019 165.664 174.834 164.261 176.671 163.542C178.509 162.823 180.639 162.642 183.06 162.998C185.638 163.13 187.93 163.313 189.937 163.547C192.134 163.747 193.44 163.908 193.855 164.031C196.323 165.755 198.527 168.213 200.469 171.406C202.411 174.598 203.551 177.147 203.889 179.053C204.227 180.958 203.96 182.774 203.087 184.501C201.035 195.084 193.421 210.878 180.248 231.885C177.058 237.167 174.193 241.507 171.651 244.906C174.38 250.317 176.954 257.623 179.372 266.823C184.691 285.728 187.89 296.558 188.968 299.314C190.047 302.071 190.8 304.099 191.227 305.399C191.654 306.698 192.462 307.931 193.651 309.095C194.988 312.199 194.396 314.957 191.877 317.369C189.547 319.747 186.372 321.785 182.349 323.481C173.957 327.131 166.578 328.735 160.211 328.293C156.757 326.548 154.059 324.078 152.117 320.886C149.502 317.223 145.078 309.459 138.847 297.595C137.156 300.253 135.562 302.894 134.062 305.518C132.562 308.142 131.063 310.767 129.563 313.391L126.526 319.53C125.653 321.257 124.78 322.984 123.908 324.711C123.225 326.404 122.37 328.227 121.34 330.178C119.214 333.699 115.771 337.553 111.011 341.738C106.238 344.746 101.644 346.544 97.2287 347.131C88.935 348.013 84.0691 346.616 82.631 342.941C77.9787 342.194 74.9842 340.269 73.6475 337.165C72.3446 334.252 71.9421 329.214 72.4399 322.051C84.0433 287.764 95.4039 263.739 106.522 249.976C104.334 247.613 102.273 243.753 100.341 238.397C96.4197 228.481 93.3315 222.151 91.076 219.407C86.0764 218.918 82.2077 217.05 79.4698 213.802C76.7319 210.553 76.4077 205.403 78.4973 198.351L81.2168 193.742C87.464 185.755 94.375 180.402 101.95 177.683C109.715 174.93 117.388 175.534 124.969 179.495C130.26 180.521 136.636 184.892 144.097 192.608C146.027 194.624 147.318 196.36 147.969 197.817C150.151 193.499 153.302 189.108 157.423 184.643Z" fill="#FECECE"/>
<path d="M419.405 134.388C423.682 129.699 426.605 126.233 428.172 123.99C429.739 121.746 431.418 119.582 433.21 117.495C435.001 115.409 436.816 114.006 438.654 113.287C440.491 112.568 442.621 112.386 445.042 112.743C447.62 112.875 449.913 113.058 451.919 113.292C454.116 113.491 455.422 113.653 455.837 113.776C458.305 115.499 460.509 117.958 462.451 121.15C464.394 124.343 465.534 126.892 465.872 128.797C466.21 130.703 465.942 132.519 465.07 134.246C463.017 144.829 455.404 160.623 442.23 181.629C439.04 186.912 436.175 191.252 433.634 194.651C436.362 200.062 438.936 207.368 441.354 216.568C446.673 235.472 449.872 246.303 450.95 249.059C452.029 251.815 452.782 253.844 453.209 255.143C453.636 256.443 454.444 257.675 455.634 258.84C456.97 261.944 456.379 264.702 453.859 267.114C451.53 269.492 448.354 271.53 444.331 273.226C435.939 276.876 428.56 278.48 422.193 278.038C418.739 276.292 416.041 273.823 414.099 270.63C411.484 266.968 407.06 259.204 400.829 247.34C399.139 249.998 397.544 252.639 396.044 255.263C394.545 257.887 393.045 260.511 391.545 263.136L388.508 269.275C387.635 271.002 386.762 272.729 385.89 274.456C385.208 276.149 384.352 277.971 383.322 279.923C381.196 283.444 377.753 287.298 372.993 291.483C368.221 294.491 363.627 296.289 359.211 296.876C350.917 297.757 346.051 296.361 344.613 292.686C339.961 291.939 336.966 290.014 335.63 286.91C334.327 283.997 333.924 278.959 334.422 271.796C346.025 237.509 357.386 213.484 368.504 199.72C366.316 197.357 364.256 193.498 362.323 188.142C358.402 178.226 355.314 171.895 353.058 169.151C348.059 168.663 344.19 166.794 341.452 163.546C338.714 160.298 338.39 155.148 340.479 148.096L343.199 143.487C349.446 135.5 356.357 130.147 363.932 127.428C371.697 124.675 379.37 125.278 386.951 129.239C392.242 130.266 398.618 134.637 406.079 142.353C408.009 144.369 409.3 146.105 409.951 147.562C412.133 143.244 415.284 138.853 419.405 134.388Z" fill="black"/>
<path d="M207.917 177.51C211.411 173.942 216.246 172.396 222.422 172.873C223.599 172.86 224.759 172.753 225.902 172.55C228.573 163.233 235.018 157.472 245.239 155.265C247.872 154.602 251.503 153.466 256.13 151.859C260.758 150.252 266.508 149.429 273.378 149.389C280.44 149.315 286.796 150.251 292.447 152.196C304.769 156.298 313.088 163.862 317.402 174.888C324.949 190.842 327.527 209.25 325.136 230.112C322.736 253.137 315.177 272.558 302.458 288.374C296.681 295.687 290.117 300.782 282.767 303.658C275.45 306.725 268.761 308.894 262.698 310.166C256.635 311.438 251.015 312.436 245.837 313.158C240.883 314.036 235.941 314.422 231.009 314.314C220.349 314.044 211.009 310.69 202.989 304.252C193.656 297.065 187.956 284.32 185.888 266.018C183.811 249.879 184.956 233.07 189.322 215.592C193.846 197.889 200.044 185.195 207.917 177.51ZM268.405 226.028C263.912 228.397 259.553 229.858 255.328 230.411C253.604 232.879 252.104 235.503 250.829 238.284C249.711 240.84 248.004 243.403 245.708 245.972C243.379 248.351 242.18 249.349 242.113 248.968C239.685 254.115 237.863 259.351 236.646 264.677C235.395 269.811 236.257 274.67 239.232 279.251C246.988 278.661 252.574 277.474 255.991 275.689C259.408 273.903 262.354 271.121 264.827 267.341C267.492 263.528 269.292 259.278 270.23 254.592C272.206 245.791 271.597 236.27 268.405 226.028Z" fill="black"/>
<path d="M136.138 184.643C140.416 179.954 143.338 176.488 144.905 174.245C146.473 172.002 148.152 169.837 149.944 167.75C151.735 165.664 153.55 164.261 155.387 163.542C157.225 162.823 159.354 162.642 161.776 162.998C164.354 163.13 166.646 163.313 168.653 163.547C170.85 163.747 172.156 163.908 172.571 164.031C175.038 165.755 177.243 168.213 179.185 171.406C181.127 174.598 182.267 177.147 182.605 179.053C182.943 180.958 182.676 182.774 181.803 184.501C179.75 195.084 172.137 210.878 158.964 231.885C155.774 237.167 152.908 241.507 150.367 244.906C153.096 250.317 155.669 257.623 158.088 266.823C163.407 285.728 166.605 296.558 167.684 299.314C168.763 302.071 169.515 304.099 169.943 305.399C170.37 306.698 171.178 307.931 172.367 309.095C173.704 312.199 173.112 314.957 170.592 317.369C168.263 319.747 165.087 321.785 161.065 323.481C152.673 327.131 145.293 328.735 138.926 328.293C135.472 326.548 132.774 324.078 130.832 320.886C128.217 317.223 123.794 309.459 117.562 297.595C115.872 300.253 114.277 302.894 112.778 305.518C111.278 308.142 109.779 310.767 108.279 313.391L105.241 319.53C104.369 321.257 103.496 322.984 102.623 324.711C101.941 326.404 101.085 328.227 100.056 330.178C97.9294 333.699 94.4862 337.553 89.7263 341.738C84.9541 344.746 80.3601 346.544 75.9444 347.131C67.6507 348.013 62.7848 346.616 61.3467 342.941C56.6944 342.194 53.6999 340.269 52.3632 337.165C51.0603 334.252 50.6578 329.214 51.1556 322.051C62.759 287.764 74.1196 263.739 85.2374 249.976C83.0495 247.613 80.9891 243.753 79.0563 238.397C75.1354 228.481 72.0472 222.151 69.7917 219.407C64.7921 218.918 60.9234 217.05 58.1855 213.802C55.4476 210.553 55.1234 205.403 57.213 198.351L59.9325 193.742C66.1797 185.755 73.0907 180.402 80.6654 177.683C88.4305 174.93 96.1035 175.534 103.684 179.495C108.976 180.521 115.352 184.892 122.813 192.608C124.743 194.624 126.033 196.36 126.685 197.817C128.866 193.499 132.018 189.108 136.138 184.643Z" fill="black"/>
<path d="M0.170532 290.377L506.684 185.42L511.725 209.748L5.21153 314.704L0.170532 290.377Z" fill="black"/>
</svg>
