<svg width="802" height="738" viewBox="0 0 802 738" fill="none" xmlns="http://www.w3.org/2000/svg">
<path d="M248.89 340.836C255.522 333.566 260.052 328.191 262.482 324.714C264.912 321.236 267.516 317.879 270.293 314.644C273.071 311.409 275.884 309.234 278.733 308.12C281.582 307.005 284.884 306.724 288.638 307.276C292.636 307.481 296.19 307.765 299.301 308.127C302.707 308.437 304.732 308.687 305.375 308.877C309.201 311.55 312.62 315.361 315.631 320.312C318.642 325.262 320.409 329.214 320.933 332.168C321.457 335.122 321.043 337.937 319.69 340.615C316.507 357.023 304.703 381.511 284.278 414.08C279.333 422.27 274.89 428.999 270.95 434.269C275.181 442.659 279.171 453.986 282.92 468.25C291.167 497.56 296.127 514.352 297.799 518.626C299.471 522.899 300.638 526.044 301.301 528.059C301.963 530.074 303.216 531.985 305.06 533.791C307.132 538.603 306.215 542.879 302.308 546.618C298.697 550.306 293.773 553.465 287.536 556.095C274.525 561.755 263.084 564.241 253.212 563.555C247.857 560.849 243.674 557.021 240.663 552.071C236.608 546.392 229.75 534.355 220.088 515.96C217.468 520.081 214.995 524.176 212.67 528.244C210.345 532.313 208.02 536.382 205.695 540.451L200.986 549.97C199.633 552.647 198.279 555.325 196.926 558.002C195.869 560.627 194.542 563.453 192.946 566.478C189.649 571.938 184.31 577.912 176.93 584.401C169.531 589.065 162.409 591.852 155.562 592.762C142.704 594.13 135.159 591.964 132.93 586.266C125.717 585.108 121.074 582.123 119.001 577.311C116.981 572.795 116.357 564.984 117.129 553.878C135.119 500.718 152.733 463.469 169.971 442.129C166.578 438.466 163.384 432.482 160.387 424.177C154.308 408.803 149.52 398.988 146.023 394.734C138.272 393.976 132.273 391.08 128.028 386.044C123.783 381.008 123.281 373.023 126.521 362.089L130.737 354.942C140.423 342.56 151.138 334.261 162.882 330.044C174.921 325.775 186.818 326.712 198.571 332.853C206.776 334.444 216.661 341.222 228.229 353.185C231.221 356.31 233.222 359.002 234.232 361.26C237.615 354.567 242.501 347.758 248.89 340.836ZM360.177 329.775C365.594 324.244 373.091 321.848 382.667 322.586C384.492 322.567 386.29 322.4 388.063 322.086C392.203 307.641 402.196 298.708 418.042 295.287C422.125 294.258 427.754 292.498 434.929 290.006C442.104 287.514 451.019 286.237 461.672 286.176C472.62 286.061 482.475 287.512 491.236 290.528C510.341 296.888 523.238 308.616 529.927 325.71C541.628 350.446 545.625 378.987 541.918 411.332C538.197 447.031 526.477 477.141 506.757 501.663C497.8 513.002 487.624 520.901 476.227 525.36C464.884 530.115 454.512 533.479 445.112 535.451C435.712 537.423 426.998 538.969 418.97 540.089C411.29 541.452 403.626 542.049 395.98 541.883C379.452 541.463 364.971 536.263 352.537 526.282C338.067 515.138 329.23 495.378 326.023 467.002C322.803 441.979 324.578 415.919 331.348 388.819C338.361 361.372 347.971 341.691 360.177 329.775ZM453.96 405C446.994 408.673 440.236 410.938 433.685 411.796C431.012 415.622 428.687 419.69 426.71 424.002C424.976 427.966 422.329 431.939 418.77 435.922C415.159 439.61 413.301 441.158 413.196 440.567C409.432 448.548 406.607 456.666 404.72 464.922C402.781 472.884 404.118 480.416 408.729 487.52C420.754 486.605 429.416 484.764 434.714 481.996C440.012 479.227 444.578 474.913 448.414 469.053C452.544 463.141 455.336 456.552 456.79 449.286C459.853 435.641 458.91 420.879 453.96 405ZM688.076 262.918C694.708 255.648 699.239 250.274 701.669 246.796C704.099 243.318 706.702 239.962 709.48 236.727C712.258 233.492 715.071 231.317 717.92 230.202C720.769 229.087 724.071 228.806 727.825 229.359C731.822 229.564 735.377 229.847 738.488 230.209C741.894 230.519 743.919 230.769 744.562 230.96C748.388 233.632 751.806 237.444 754.817 242.394C757.828 247.344 759.596 251.296 760.12 254.25C760.644 257.204 760.229 260.02 758.876 262.697C755.694 279.105 743.89 303.594 723.465 336.163C718.52 344.352 714.077 351.082 710.137 356.351C714.368 364.741 718.358 376.068 722.107 390.333C730.354 419.643 735.313 436.435 736.986 440.708C738.658 444.982 739.825 448.126 740.487 450.142C741.15 452.157 742.403 454.067 744.246 455.873C746.319 460.685 745.402 464.961 741.495 468.701C737.883 472.388 732.96 475.547 726.723 478.177C713.712 483.837 702.27 486.324 692.399 485.638C687.044 482.932 682.86 479.103 679.849 474.153C675.795 468.474 668.937 456.437 659.275 438.042C656.655 442.163 654.182 446.258 651.857 450.327C649.532 454.396 647.207 458.464 644.882 462.533L640.172 472.052C638.819 474.73 637.466 477.407 636.113 480.085C635.055 482.71 633.729 485.535 632.132 488.56C628.836 494.02 623.497 499.995 616.117 506.484C608.718 511.148 601.595 513.935 594.749 514.845C581.89 516.212 574.346 514.047 572.116 508.349C564.903 507.191 560.26 504.206 558.188 499.394C556.168 494.877 555.544 487.066 556.316 475.961C574.306 422.801 591.92 385.551 609.157 364.212C605.765 360.548 602.571 354.564 599.574 346.26C593.495 330.885 588.707 321.071 585.21 316.816C577.458 316.059 571.46 313.162 567.215 308.126C562.97 303.09 562.468 295.105 565.707 284.171L569.924 277.025C579.61 264.642 590.325 256.343 602.069 252.127C614.108 247.858 626.005 248.794 637.758 254.935C645.962 256.527 655.848 263.304 667.416 275.267C670.408 278.393 672.409 281.085 673.419 283.343C676.801 276.649 681.687 269.841 688.076 262.918Z" fill="#FECECE"/>
<path d="M215.89 340.836C222.522 333.566 227.052 328.191 229.482 324.714C231.912 321.236 234.516 317.879 237.293 314.644C240.071 311.409 242.884 309.234 245.733 308.12C248.582 307.005 251.884 306.724 255.638 307.276C259.636 307.481 263.19 307.765 266.301 308.127C269.707 308.437 271.732 308.687 272.375 308.877C276.201 311.55 279.62 315.361 282.631 320.312C285.642 325.262 287.409 329.214 287.933 332.168C288.457 335.122 288.043 337.937 286.69 340.615C283.507 357.023 271.703 381.511 251.278 414.08C246.333 422.27 241.89 428.999 237.95 434.269C242.181 442.659 246.171 453.986 249.92 468.25C258.167 497.56 263.127 514.352 264.799 518.626C266.471 522.899 267.638 526.044 268.301 528.059C268.963 530.074 270.216 531.985 272.06 533.791C274.132 538.603 273.215 542.879 269.308 546.618C265.697 550.306 260.773 553.465 254.536 556.095C241.525 561.755 230.084 564.241 220.212 563.555C214.857 560.849 210.674 557.021 207.663 552.071C203.608 546.392 196.75 534.355 187.088 515.96C184.468 520.081 181.995 524.176 179.67 528.244C177.345 532.313 175.02 536.382 172.695 540.451L167.986 549.97C166.633 552.647 165.279 555.325 163.926 558.002C162.869 560.627 161.542 563.453 159.946 566.478C156.649 571.938 151.31 577.912 143.93 584.401C136.531 589.065 129.409 591.852 122.562 592.762C109.704 594.13 102.159 591.964 99.9297 586.266C92.7165 585.108 88.0737 582.123 86.0013 577.311C83.9813 572.795 83.3572 564.984 84.1291 553.878C102.119 500.718 119.733 463.469 136.971 442.129C133.578 438.466 130.384 432.482 127.387 424.177C121.308 408.803 116.52 398.988 113.023 394.734C105.272 393.976 99.2734 391.08 95.0284 386.044C90.7834 381.008 90.2809 373.023 93.5206 362.089L97.7371 354.942C107.423 342.56 118.138 334.261 129.882 330.044C141.921 325.775 153.818 326.712 165.571 332.853C173.776 334.444 183.661 341.222 195.229 353.185C198.221 356.31 200.222 359.002 201.232 361.26C204.615 354.567 209.501 347.758 215.89 340.836ZM327.177 329.775C332.594 324.244 340.091 321.848 349.667 322.586C351.492 322.567 353.29 322.4 355.063 322.086C359.203 307.641 369.196 298.708 385.042 295.287C389.125 294.258 394.754 292.498 401.929 290.006C409.104 287.514 418.019 286.237 428.672 286.176C439.62 286.061 449.475 287.512 458.236 290.528C477.341 296.888 490.238 308.616 496.927 325.71C508.628 350.446 512.625 378.987 508.918 411.332C505.197 447.031 493.477 477.141 473.757 501.663C464.8 513.002 454.624 520.901 443.227 525.36C431.884 530.115 421.512 533.479 412.112 535.451C402.712 537.423 393.998 538.969 385.97 540.089C378.29 541.452 370.626 542.049 362.98 541.883C346.452 541.463 331.971 536.263 319.537 526.282C305.067 515.138 296.23 495.378 293.023 467.002C289.803 441.979 291.578 415.919 298.348 388.819C305.361 361.372 314.971 341.691 327.177 329.775ZM420.96 405C413.994 408.673 407.236 410.938 400.685 411.796C398.012 415.622 395.687 419.69 393.71 424.002C391.976 427.966 389.329 431.939 385.77 435.922C382.159 439.61 380.301 441.158 380.196 440.567C376.432 448.548 373.607 456.666 371.72 464.922C369.781 472.884 371.118 480.416 375.729 487.52C387.754 486.605 396.416 484.764 401.714 481.996C407.012 479.227 411.578 474.913 415.414 469.053C419.544 463.141 422.336 456.552 423.79 449.286C426.853 435.641 425.91 420.879 420.96 405ZM655.076 262.918C661.708 255.648 666.239 250.274 668.669 246.796C671.099 243.318 673.702 239.962 676.48 236.727C679.258 233.492 682.071 231.317 684.92 230.202C687.769 229.087 691.071 228.806 694.825 229.359C698.822 229.564 702.377 229.847 705.488 230.209C708.894 230.519 710.919 230.769 711.562 230.96C715.388 233.632 718.806 237.444 721.817 242.394C724.828 247.344 726.596 251.296 727.12 254.25C727.644 257.204 727.229 260.02 725.876 262.697C722.694 279.105 710.89 303.594 690.465 336.163C685.52 344.352 681.077 351.082 677.137 356.351C681.368 364.741 685.358 376.068 689.107 390.333C697.354 419.643 702.313 436.435 703.986 440.708C705.658 444.982 706.825 448.126 707.487 450.142C708.15 452.157 709.403 454.067 711.246 455.873C713.319 460.685 712.402 464.961 708.495 468.701C704.883 472.388 699.96 475.547 693.723 478.177C680.712 483.837 669.27 486.324 659.399 485.638C654.044 482.932 649.86 479.103 646.849 474.153C642.795 468.474 635.937 456.437 626.275 438.042C623.655 442.163 621.182 446.258 618.857 450.327C616.532 454.396 614.207 458.464 611.882 462.533L607.172 472.052C605.819 474.73 604.466 477.407 603.113 480.085C602.055 482.71 600.729 485.535 599.132 488.56C595.836 494.02 590.497 499.995 583.117 506.484C575.718 511.148 568.595 513.935 561.749 514.845C548.89 516.212 541.346 514.047 539.116 508.349C531.903 507.191 527.26 504.206 525.188 499.394C523.168 494.877 522.544 487.066 523.316 475.961C541.306 422.801 558.92 385.551 576.157 364.212C572.765 360.548 569.571 354.564 566.574 346.26C560.495 330.885 555.707 321.071 552.21 316.816C544.458 316.059 538.46 313.162 534.215 308.126C529.97 303.09 529.468 295.105 532.707 284.171L536.924 277.025C546.61 264.642 557.325 256.343 569.069 252.127C581.108 247.858 593.005 248.794 604.758 254.935C612.962 256.527 622.848 263.304 634.416 275.267C637.408 278.393 639.409 281.085 640.419 283.343C643.801 276.649 648.687 269.841 655.076 262.918Z" fill="black"/>
</svg>
